# xmcd
#
# Track frame offsets:
# 150
# 12569
# 25014
# 37439
# 49386
# 61786
# 75040
# 88199
# 99315
# 111017
# 123359
# 135356
# 147139
# 159787
# 173030
# 185300
# 196451
# 208041
# 218012
# 228924
#
# Disc length: 3233 seconds
#
#
# Revision: 0
# Processed by: cddbd v1.5.2PL0 Copyright (c) Steve Scherf et al.
# Submitted via: FreeRIP 2.951 
#
DISCID=020c9f14
DTITLE=Hank Williams - Famous Country Music Makers
DYEAR=1900
DGENRE=Country
TTITLE0=Move It On Over
TTITLE1=Honky Tonkin'
TTITLE2=Lovesick Blues
TTITLE3=Long Gone Lonesome Blues
TTITLE4=Cold, Cold Heart
TTITLE5=Hey, Good Lookin'
TTITLE6=Jambalaya (On The Bayou)
TTITLE7=I'll Never Get Out Of This World Alive
TTITLE8=Kaw - Liga
TTITLE9=Your Cheatin' Heart
TTITLE10=Take These Chains From My Heart
TTITLE11=You Win Again
TTITLE12=I'm So Lonesome I Could Cry
TTITLE13=Mind Your Own Business
TTITLE14=Lost Highway
TTITLE15=(I Heard That) Lonesome Whistle
TTITLE16=Baby, We're Really In Love
TTITLE17=Honky Tonk Blues
TTITLE18=I Can't Help It (If I'm Still In Love With You)
TTITLE19=Ramblin' Man
EXTD=
EXTT0=
EXTT1=
EXTT2=
EXTT3=
EXTT4=
EXTT5=
EXTT6=
EXTT7=
EXTT8=
EXTT9=
EXTT10=
EXTT11=
EXTT12=
EXTT13=
EXTT14=
EXTT15=
EXTT16=
EXTT17=
EXTT18=
EXTT19=
PLAYORDER=
